<?xml version="1.0" encoding="UTF-8" standalone="no"?>
<!DOCTYPE svg PUBLIC "-//W3C//DTD SVG 1.0//EN" "http://www.w3.org/TR/2001/PR-SVG-20010719/DTD/svg10.dtd">
<svg width="9cm" height="19cm" viewBox="31 0 9 19">
  <rect style="fill: #ffffff" x="37.5" y="0.5" width="1" height="1"/>
  <rect style="fill: none; fill-opacity:0; stroke-width: 0.1; stroke: #000000" x="37.5" y="0.5" width="1" height="1"/>
  <rect style="fill: #ffffff" x="38.5" y="0.5" width="1" height="1"/>
  <rect style="fill: none; fill-opacity:0; stroke-width: 0.1; stroke: #000000" x="38.5" y="0.5" width="1" height="1"/>
  <rect style="fill: #ffffff" x="35.5" y="0.5" width="1" height="1"/>
  <rect style="fill: none; fill-opacity:0; stroke-width: 0.1; stroke: #000000" x="35.5" y="0.5" width="1" height="1"/>
  <rect style="fill: #ffffff" x="36.5" y="0.5" width="1" height="1"/>
  <rect style="fill: none; fill-opacity:0; stroke-width: 0.1; stroke: #000000" x="36.5" y="0.5" width="1" height="1"/>
  <rect style="fill: #ffffff" x="33.5" y="0.5" width="1" height="1"/>
  <rect style="fill: none; fill-opacity:0; stroke-width: 0.1; stroke: #000000" x="33.5" y="0.5" width="1" height="1"/>
  <rect style="fill: #ffffff" x="34.5" y="0.5" width="1" height="1"/>
  <rect style="fill: none; fill-opacity:0; stroke-width: 0.1; stroke: #000000" x="34.5" y="0.5" width="1" height="1"/>
  <rect style="fill: #ffffff" x="31.5" y="0.5" width="1" height="1"/>
  <rect style="fill: none; fill-opacity:0; stroke-width: 0.1; stroke: #000000" x="31.5" y="0.5" width="1" height="1"/>
  <rect style="fill: #ffffff" x="32.5" y="0.5" width="1" height="1"/>
  <rect style="fill: none; fill-opacity:0; stroke-width: 0.1; stroke: #000000" x="32.5" y="0.5" width="1" height="1"/>
  <text style="fill: #000000; text-anchor:start; font-size: 0.8; font-family: sans; font-style: normal; font-weight: normal" x="31.8" y="1.2">0</text>
  <text style="fill: #000000; text-anchor:start; font-size: 0.8; font-family: sans; font-style: normal; font-weight: normal" x="32.8" y="1.2">2</text>
  <text style="fill: #000000; text-anchor:start; font-size: 0.8; font-family: sans; font-style: normal; font-weight: normal" x="33.8" y="1.2">4</text>
  <text style="fill: #000000; text-anchor:start; font-size: 0.8; font-family: sans; font-style: normal; font-weight: normal" x="34.8" y="1.2">6</text>
  <text style="fill: #000000; text-anchor:start; font-size: 0.8; font-family: sans; font-style: normal; font-weight: normal" x="35.8" y="1.2">8</text>
  <text style="fill: #000000; text-anchor:start; font-size: 0.8; font-family: sans; font-style: normal; font-weight: normal" x="36.6" y="1.2">10</text>
  <text style="fill: #000000; text-anchor:start; font-size: 0.8; font-family: sans; font-style: normal; font-weight: normal" x="37.6" y="1.2">12</text>
  <text style="fill: #000000; text-anchor:start; font-size: 0.8; font-family: sans; font-style: normal; font-weight: normal" x="38.6" y="1.2">14</text>
  <rect style="fill: #ffffff" x="33.5" y="2.5" width="1" height="1"/>
  <rect style="fill: none; fill-opacity:0; stroke-width: 0.1; stroke: #000000" x="33.5" y="2.5" width="1" height="1"/>
  <rect style="fill: #ffffff" x="34.5" y="2.5" width="1" height="1"/>
  <rect style="fill: none; fill-opacity:0; stroke-width: 0.1; stroke: #000000" x="34.5" y="2.5" width="1" height="1"/>
  <rect style="fill: #ffffff" x="31.5" y="2.5" width="1" height="1"/>
  <rect style="fill: none; fill-opacity:0; stroke-width: 0.1; stroke: #000000" x="31.5" y="2.5" width="1" height="1"/>
  <rect style="fill: #ffffff" x="32.5" y="2.5" width="1" height="1"/>
  <rect style="fill: none; fill-opacity:0; stroke-width: 0.1; stroke: #000000" x="32.5" y="2.5" width="1" height="1"/>
  <text style="fill: #000000; text-anchor:start; font-size: 0.8; font-family: sans; font-style: normal; font-weight: normal" x="31.8" y="3.2">0</text>
  <text style="fill: #000000; text-anchor:start; font-size: 0.8; font-family: sans; font-style: normal; font-weight: normal" x="32.8" y="3.2">4</text>
  <text style="fill: #000000; text-anchor:start; font-size: 0.8; font-family: sans; font-style: normal; font-weight: normal" x="33.8" y="3.2">8</text>
  <text style="fill: #000000; text-anchor:start; font-size: 0.8; font-family: sans; font-style: normal; font-weight: normal" x="34.6" y="3.2">12</text>
  <rect style="fill: #ffffff" x="33.5" y="3.5" width="1" height="1"/>
  <rect style="fill: none; fill-opacity:0; stroke-width: 0.1; stroke: #000000" x="33.5" y="3.5" width="1" height="1"/>
  <rect style="fill: #ffffff" x="34.5" y="3.5" width="1" height="1"/>
  <rect style="fill: none; fill-opacity:0; stroke-width: 0.1; stroke: #000000" x="34.5" y="3.5" width="1" height="1"/>
  <rect style="fill: #ffffff" x="31.5" y="3.5" width="1" height="1"/>
  <rect style="fill: none; fill-opacity:0; stroke-width: 0.1; stroke: #000000" x="31.5" y="3.5" width="1" height="1"/>
  <rect style="fill: #ffffff" x="32.5" y="3.5" width="1" height="1"/>
  <rect style="fill: none; fill-opacity:0; stroke-width: 0.1; stroke: #000000" x="32.5" y="3.5" width="1" height="1"/>
  <text style="fill: #000000; text-anchor:start; font-size: 0.8; font-family: sans; font-style: normal; font-weight: normal" x="31.8" y="4.2">2</text>
  <text style="fill: #000000; text-anchor:start; font-size: 0.8; font-family: sans; font-style: normal; font-weight: normal" x="32.8" y="4.2">6</text>
  <text style="fill: #000000; text-anchor:start; font-size: 0.8; font-family: sans; font-style: normal; font-weight: normal" x="33.6" y="4.2">10</text>
  <text style="fill: #000000; text-anchor:start; font-size: 0.8; font-family: sans; font-style: normal; font-weight: normal" x="34.6" y="4.2">14</text>
  <rect style="fill: #ffffff" x="31.5" y="5.5" width="1" height="1"/>
  <rect style="fill: none; fill-opacity:0; stroke-width: 0.1; stroke: #000000" x="31.5" y="5.5" width="1" height="1"/>
  <rect style="fill: #ffffff" x="32.5" y="5.5" width="1" height="1"/>
  <rect style="fill: none; fill-opacity:0; stroke-width: 0.1; stroke: #000000" x="32.5" y="5.5" width="1" height="1"/>
  <text style="fill: #000000; text-anchor:start; font-size: 0.8; font-family: sans; font-style: normal; font-weight: normal" x="31.8" y="6.2">0</text>
  <text style="fill: #000000; text-anchor:start; font-size: 0.8; font-family: sans; font-style: normal; font-weight: normal" x="32.8" y="6.2">8</text>
  <rect style="fill: #ffffff" x="31.5" y="6.5" width="1" height="1"/>
  <rect style="fill: none; fill-opacity:0; stroke-width: 0.1; stroke: #000000" x="31.5" y="6.5" width="1" height="1"/>
  <rect style="fill: #ffffff" x="32.5" y="6.5" width="1" height="1"/>
  <rect style="fill: none; fill-opacity:0; stroke-width: 0.1; stroke: #000000" x="32.5" y="6.5" width="1" height="1"/>
  <text style="fill: #000000; text-anchor:start; font-size: 0.8; font-family: sans; font-style: normal; font-weight: normal" x="31.8" y="7.2">4</text>
  <text style="fill: #000000; text-anchor:start; font-size: 0.8; font-family: sans; font-style: normal; font-weight: normal" x="32.6" y="7.2">12</text>
  <rect style="fill: #ffffff" x="31.5" y="7.5" width="1" height="1"/>
  <rect style="fill: none; fill-opacity:0; stroke-width: 0.1; stroke: #000000" x="31.5" y="7.5" width="1" height="1"/>
  <rect style="fill: #ffffff" x="32.5" y="7.5" width="1" height="1"/>
  <rect style="fill: none; fill-opacity:0; stroke-width: 0.1; stroke: #000000" x="32.5" y="7.5" width="1" height="1"/>
  <text style="fill: #000000; text-anchor:start; font-size: 0.8; font-family: sans; font-style: normal; font-weight: normal" x="31.8" y="8.2">2</text>
  <text style="fill: #000000; text-anchor:start; font-size: 0.8; font-family: sans; font-style: normal; font-weight: normal" x="32.6" y="8.2">10</text>
  <rect style="fill: #ffffff" x="31.5" y="8.5" width="1" height="1"/>
  <rect style="fill: none; fill-opacity:0; stroke-width: 0.1; stroke: #000000" x="31.5" y="8.5" width="1" height="1"/>
  <rect style="fill: #ffffff" x="32.5" y="8.5" width="1" height="1"/>
  <rect style="fill: none; fill-opacity:0; stroke-width: 0.1; stroke: #000000" x="32.5" y="8.5" width="1" height="1"/>
  <text style="fill: #000000; text-anchor:start; font-size: 0.8; font-family: sans; font-style: normal; font-weight: normal" x="31.8" y="9.2">6</text>
  <text style="fill: #000000; text-anchor:start; font-size: 0.8; font-family: sans; font-style: normal; font-weight: normal" x="32.6" y="9.2">14</text>
  <rect style="fill: #ffffff" x="31.5" y="10.5" width="1" height="1"/>
  <rect style="fill: none; fill-opacity:0; stroke-width: 0.1; stroke: #000000" x="31.5" y="10.5" width="1" height="1"/>
  <text style="fill: #000000; text-anchor:start; font-size: 0.8; font-family: sans; font-style: normal; font-weight: normal" x="31.8" y="11.2">0</text>
  <rect style="fill: #ffffff" x="31.5" y="11.5" width="1" height="1"/>
  <rect style="fill: none; fill-opacity:0; stroke-width: 0.1; stroke: #000000" x="31.5" y="11.5" width="1" height="1"/>
  <text style="fill: #000000; text-anchor:start; font-size: 0.8; font-family: sans; font-style: normal; font-weight: normal" x="31.8" y="12.2">8</text>
  <rect style="fill: #ffffff" x="31.5" y="13.5" width="1" height="1"/>
  <rect style="fill: none; fill-opacity:0; stroke-width: 0.1; stroke: #000000" x="31.5" y="13.5" width="1" height="1"/>
  <rect style="fill: #ffffff" x="31.5" y="12.5" width="1" height="1"/>
  <rect style="fill: none; fill-opacity:0; stroke-width: 0.1; stroke: #000000" x="31.5" y="12.5" width="1" height="1"/>
  <text style="fill: #000000; text-anchor:start; font-size: 0.8; font-family: sans; font-style: normal; font-weight: normal" x="31.8" y="13.2">4</text>
  <text style="fill: #000000; text-anchor:start; font-size: 0.8; font-family: sans; font-style: normal; font-weight: normal" x="31.6" y="14.2">12</text>
  <rect style="fill: #ffffff" x="31.5" y="15.5" width="1" height="1"/>
  <rect style="fill: none; fill-opacity:0; stroke-width: 0.1; stroke: #000000" x="31.5" y="15.5" width="1" height="1"/>
  <rect style="fill: #ffffff" x="31.5" y="14.5" width="1" height="1"/>
  <rect style="fill: none; fill-opacity:0; stroke-width: 0.1; stroke: #000000" x="31.5" y="14.5" width="1" height="1"/>
  <text style="fill: #000000; text-anchor:start; font-size: 0.8; font-family: sans; font-style: normal; font-weight: normal" x="31.8" y="15.2">2</text>
  <text style="fill: #000000; text-anchor:start; font-size: 0.8; font-family: sans; font-style: normal; font-weight: normal" x="31.6" y="16.2">10</text>
  <rect style="fill: #ffffff" x="31.5" y="17.5" width="1" height="1"/>
  <rect style="fill: none; fill-opacity:0; stroke-width: 0.1; stroke: #000000" x="31.5" y="17.5" width="1" height="1"/>
  <rect style="fill: #ffffff" x="31.5" y="16.5" width="1" height="1"/>
  <rect style="fill: none; fill-opacity:0; stroke-width: 0.1; stroke: #000000" x="31.5" y="16.5" width="1" height="1"/>
  <text style="fill: #000000; text-anchor:start; font-size: 0.8; font-family: sans; font-style: normal; font-weight: normal" x="31.8" y="17.2">6</text>
  <text style="fill: #000000; text-anchor:start; font-size: 0.8; font-family: sans; font-style: normal; font-weight: normal" x="31.6" y="18.2">14</text>
</svg>
